<mxfile host="65bd71144e">
    <diagram id="nFHqeYb1Vjg3AZ5FSIf_" name="Navigation test">
        <mxGraphModel dx="625" dy="573" grid="1" gridSize="10" guides="1" tooltips="1" connect="1" arrows="1" fold="1" page="1" pageScale="1" pageWidth="583" pageHeight="413" math="0" shadow="0">
            <root>
                <mxCell id="0"/>
                <mxCell id="1" parent="0"/>
                <object label="" type="POI" tag="" display="true" id="MUB7im2g7Zm_g3CCuWGE-4">
                    <mxCell style="ellipse;whiteSpace=wrap;html=1;aspect=fixed;fillColor=#e3c800;strokeColor=#B09500;fontColor=#000000;" parent="1" vertex="1">
                        <mxGeometry x="70" y="350" width="16" height="16" as="geometry"/>
                    </mxCell>
                </object>
                <object label="" type="POI" tag="" display="true" id="MUB7im2g7Zm_g3CCuWGE-5">
                    <mxCell style="ellipse;whiteSpace=wrap;html=1;aspect=fixed;fillColor=#e3c800;strokeColor=#B09500;fontColor=#000000;" parent="1" vertex="1">
                        <mxGeometry x="510" y="350" width="16" height="16" as="geometry"/>
                    </mxCell>
                </object>
                <object label="" type="POI" tag="" display="true" id="MUB7im2g7Zm_g3CCuWGE-6">
                    <mxCell style="ellipse;whiteSpace=wrap;html=1;aspect=fixed;fillColor=#e3c800;strokeColor=#B09500;fontColor=#000000;" parent="1" vertex="1">
                        <mxGeometry x="510" y="30" width="16" height="16" as="geometry"/>
                    </mxCell>
                </object>
                <object label="" type="POI" tag="" display="true" id="MUB7im2g7Zm_g3CCuWGE-7">
                    <mxCell style="ellipse;whiteSpace=wrap;html=1;aspect=fixed;fillColor=#e3c800;strokeColor=#B09500;fontColor=#000000;" parent="1" vertex="1">
                        <mxGeometry x="284" y="30" width="16" height="16" as="geometry"/>
                    </mxCell>
                </object>
                <object label="" type="POI" tag="" display="true" id="MUB7im2g7Zm_g3CCuWGE-8">
                    <mxCell style="ellipse;whiteSpace=wrap;html=1;aspect=fixed;fillColor=#e3c800;strokeColor=#B09500;fontColor=#000000;" parent="1" vertex="1">
                        <mxGeometry x="284" y="350" width="16" height="16" as="geometry"/>
                    </mxCell>
                </object>
                <object label="" type="POI" tag="" display="true" id="MUB7im2g7Zm_g3CCuWGE-11">
                    <mxCell style="ellipse;whiteSpace=wrap;html=1;aspect=fixed;fillColor=#e3c800;strokeColor=#B09500;fontColor=#000000;" parent="1" vertex="1">
                        <mxGeometry x="70" y="199" width="16" height="16" as="geometry"/>
                    </mxCell>
                </object>
                <object label="" type="POI" tag="" display="true" id="MUB7im2g7Zm_g3CCuWGE-12">
                    <mxCell style="ellipse;whiteSpace=wrap;html=1;aspect=fixed;fillColor=#e3c800;strokeColor=#B09500;fontColor=#000000;" parent="1" vertex="1">
                        <mxGeometry x="510" y="199" width="16" height="16" as="geometry"/>
                    </mxCell>
                </object>
                <object label="" type="POI" tag="" display="true" id="MUB7im2g7Zm_g3CCuWGE-13">
                    <mxCell style="ellipse;whiteSpace=wrap;html=1;aspect=fixed;fillColor=#e3c800;strokeColor=#B09500;fontColor=#000000;" parent="1" vertex="1">
                        <mxGeometry x="284" y="199" width="16" height="16" as="geometry"/>
                    </mxCell>
                </object>
                <object label="" type="POI" tag="" display="true" id="2">
                    <mxCell style="ellipse;whiteSpace=wrap;html=1;aspect=fixed;fillColor=#e3c800;strokeColor=#B09500;fontColor=#000000;" parent="1" vertex="1">
                        <mxGeometry x="70" y="30" width="16" height="16" as="geometry"/>
                    </mxCell>
                </object>
                <object label="" type="robot" name="R2D2" id="7">
                    <mxCell style="whiteSpace=wrap;html=1;aspect=fixed;fillColor=#6a00ff;fontColor=#ffffff;strokeColor=#3700CC;" parent="1" vertex="1">
                        <mxGeometry x="62" y="70" width="32" height="32" as="geometry"/>
                    </mxCell>
                </object>
                <object label="" type="POI" tag="1" display="true" id="8">
                    <mxCell style="ellipse;whiteSpace=wrap;html=1;aspect=fixed;fillColor=#e51400;fontColor=#ffffff;strokeColor=#B20000;" vertex="1" parent="1">
                        <mxGeometry x="140" y="85" width="16" height="16" as="geometry"/>
                    </mxCell>
                </object>
                <object label="" type="POI" tag="2" display="true" id="9">
                    <mxCell style="ellipse;whiteSpace=wrap;html=1;aspect=fixed;fillColor=#e51400;fontColor=#ffffff;strokeColor=#B20000;" vertex="1" parent="1">
                        <mxGeometry x="175" y="235" width="16" height="16" as="geometry"/>
                    </mxCell>
                </object>
                <object label="" type="POI" tag="3" display="true" id="10">
                    <mxCell style="ellipse;whiteSpace=wrap;html=1;aspect=fixed;fillColor=#e51400;fontColor=#ffffff;strokeColor=#B20000;" vertex="1" parent="1">
                        <mxGeometry x="365" y="270" width="16" height="16" as="geometry"/>
                    </mxCell>
                </object>
                <object label="" type="POI" tag="4" display="true" id="13">
                    <mxCell style="ellipse;whiteSpace=wrap;html=1;aspect=fixed;strokeColor=#000000;" vertex="1" parent="1">
                        <mxGeometry x="400" y="350" width="16" height="16" as="geometry"/>
                    </mxCell>
                </object>
            </root>
        </mxGraphModel>
    </diagram>
</mxfile>